<?xml version="1.0" encoding="UTF-8"?>
<svg id="Calque_2" data-name="Calque 2" xmlns="http://www.w3.org/2000/svg" viewBox="0 0 129.2 247.06">
  <defs>
    <style>
      .cls-1 {
        fill: #cc5616;
      }

      .cls-2 {
        fill: #134395;
      }

      .cls-3 {
        fill: #99c8c8;
      }
    </style>
  </defs>
  <g id="tete_cassandre" data-name="tete cassandre">
    <g>
      <ellipse class="cls-1" cx="43.34" cy="24.63" rx="14.34" ry="16.85"/>
      <path class="cls-3" d="m58.4,56.31c-.1-.01-.19-.02-.29-.02.84-.48,1.46-1.34,1.57-2.38.2-1.73-1.04-3.28-2.77-3.48-.24-.03-.48-.02-.72,0,1.03-.42,1.81-1.37,1.94-2.56.18-1.61-.89-3.08-2.44-3.43.61-.5,1.03-1.22,1.12-2.07.2-1.73-1.04-3.28-2.77-3.48-.1-.01-.19-.02-.29-.02.84-.48,1.46-1.34,1.57-2.38.08-.69-.08-1.35-.4-1.91-1.13,1.75-2.54,3.23-4.16,4.35.33.17.69.28,1.08.33.1.01.19.02.29.02-.84.48-1.46,1.34-1.57,2.38-.18,1.61.89,3.08,2.44,3.43-.61.5-1.03,1.22-1.12,2.07-.2,1.73,1.04,3.28,2.77,3.48.24.03.48.02.72,0-1.03.42-1.81,1.37-1.94,2.56-.2,1.73,1.04,3.28,2.77,3.48.1.01.19.02.29.02-.84.48-1.46,1.34-1.57,2.38-.2,1.73,1.04,3.28,2.77,3.48,1.73.2,3.28-1.04,3.48-2.77.2-1.73-1.04-3.28-2.77-3.48Z"/>
      <path class="cls-3" d="m32.42,20.05c1.72,0,3.16,1.15,3.61,2.73.45-1.57,1.89-2.73,3.61-2.73s3.18,1.18,3.61,2.77h.06c.43-1.59,1.88-2.77,3.61-2.77s3.12,1.12,3.59,2.66c.47-1.54,1.9-2.66,3.59-2.66,1.59,0,2.94.99,3.49,2.38-.18-9.13-6.52-16.46-14.33-16.46s-14.15,7.34-14.33,16.46c.55-1.39,1.9-2.38,3.49-2.38Z"/>
      <path class="cls-3" d="m32.99,37.65c.1,0,.19,0,.29-.02.25-.03.49-.09.72-.17-1.4-1.39-2.57-3.1-3.44-5.03-.57.64-.87,1.51-.77,2.43.12,1.04.73,1.9,1.57,2.38-.1,0-.19,0-.29.02-1.73.2-2.97,1.75-2.77,3.48.1.84.52,1.57,1.12,2.07-1.55.34-2.63,1.81-2.44,3.43.13,1.18.91,2.14,1.94,2.56-.23-.03-.47-.03-.72,0-1.73.2-2.97,1.75-2.77,3.48.12,1.04.73,1.9,1.57,2.38-.1,0-.19,0-.29.02-1.73.2-2.97,1.75-2.77,3.48.2,1.73,1.75,2.97,3.48,2.77,1.73-.2,2.97-1.75,2.77-3.48-.12-1.04-.73-1.9-1.57-2.38.1,0,.19,0,.29-.02,1.73-.2,2.97-1.75,2.77-3.48-.13-1.18-.91-2.14-1.94-2.56.23.03.47.03.72,0,1.73-.2,2.97-1.75,2.77-3.48-.1-.84-.52-1.57-1.12-2.07,1.55-.34,2.63-1.81,2.44-3.43-.12-1.04-.73-1.9-1.57-2.38Z"/>
    </g>
  </g>
  <g id="main_droite_cassandre" data-name="main droite cassandre">
    <path class="cls-1" d="m116.98,35.93c-.82,1.71-1.21,4.33-.53,7.59.68,3.3,2.84,5.12,4.49,6.49,1.31,1.1,2.49,2.06,4.17,2,.34-.01,2.16-.04,3.29-1.5.89-1.16,1-2.75.49-3.9-.57-1.27-1.47-1.07-3.1-2.75-.7-.72-1.8-1.87-2.21-3.54-.49-2.01.02-3.37-.5-5.27-.4-1.45-1.06-2.44-2.35-2.41-1.3.04-3.02,1.78-3.74,3.29Z"/>
  </g>
  <g id="pd_cassande" data-name="pd cassande">
    <path class="cls-1" d="m65.77,233.42h11.07c7.39,0,13.4,6,13.4,13.4v.24h-24.47v-13.64h0Z"/>
  </g>
  <g id="pg_cassandre" data-name="pg cassandre">
    <path class="cls-1" d="m14.51,233.42h11.07v13.64H1.11v-.24c0-7.39,6-13.4,13.4-13.4Z"/>
  </g>
  <g id="haut_cassandre" data-name="haut cassandre">
    <polygon class="cls-2" points="43.34 96.51 83.04 52.09 3.64 52.09 43.34 96.51"/>
  </g>
  <g id="bas_cassandre" data-name="bas cassandre">
    <path class="cls-3" d="m44.03,102.83C20.1,102.83.69,120.18.69,141.58h86.69c0-21.4-19.41-38.75-43.34-38.75Z"/>
    <path class="cls-3" d="m43.34,141.58c-23.94,0-43.34,17.35-43.34,38.75h86.69c0-21.4-19.41-38.75-43.34-38.75Z"/>
    <path class="cls-3" d="m44.03,180.32c-23.94,0-43.34,17.35-43.34,38.75h86.69c0-21.4-19.41-38.75-43.34-38.75Z"/>
  </g>
  <g id="mg_cassandre" data-name="mg cassandre">
    <path class="cls-1" d="m124.13.53c-.23-.14-.47-.26-.74-.35-2.02-.64-4.47.62-5.66,1.64-2.11,1.81-1.76,4.13-1.19,7.97,0,0,.62,4.18,3.88,8.45.28.37.92,1.18,2.15,1.74.22.1.56.18.74.22.29.06.55.08.82.1V.53Z"/>
  </g>
</svg>