<?xml version="1.0" encoding="UTF-8"?>
<svg id="Calque_2" data-name="Calque 2" xmlns="http://www.w3.org/2000/svg" xmlns:xlink="http://www.w3.org/1999/xlink" viewBox="0 0 471.89 409.15">
  <defs>
    <style>
      .cls-1 {
        fill: #e985af;
      }

      .cls-2 {
        fill: #ef80b1;
      }

      .cls-3 {
        fill: #fcc11a;
      }

      .cls-4 {
        fill: #639d7b;
      }

      .cls-5 {
        fill: url(#Dégradé_sans_nom_43);
      }

      .cls-6 {
        fill: none;
        stroke: #ef80b1;
        stroke-miterlimit: 10;
        stroke-width: 5px;
      }
    </style>
    <linearGradient id="Dégradé_sans_nom_43" data-name="Dégradé sans nom 43" x1="327.95" y1="45.35" x2="330.72" y2="166.61" gradientUnits="userSpaceOnUse">
      <stop offset="0" stop-color="#fcc11a"/>
      <stop offset=".18" stop-color="#fcc11d"/>
      <stop offset=".32" stop-color="#fcc426"/>
      <stop offset=".44" stop-color="#fcc836"/>
      <stop offset=".55" stop-color="#fccf4d"/>
      <stop offset=".65" stop-color="#fdd76b"/>
      <stop offset=".75" stop-color="#fde08f"/>
      <stop offset=".85" stop-color="#feecb9"/>
    </linearGradient>
  </defs>
  <g id="Calque_1-2" data-name="Calque 1">
    <path class="cls-1" d="m417.29,304.13c-22.26,0-42.9,6.93-59.89,18.74-18.06,12.56-41.94,12.56-60,0-16.99-11.81-37.63-18.74-59.89-18.74s-43.47,7.12-60.59,19.24c-18.57,13.14-43.16,13.14-61.73,0-17.12-12.12-38.02-19.24-60.59-19.24-1.81,0-3.61.05-5.4.14-67.72,3.43-64.49,104.88,3.32,104.88h79.98s27.12,0,27.12,0h259.76c67.81,0,71.04-101.45,3.32-104.88-1.79-.09-3.59-.14-5.4-.14Z"/>
    <g>
      <path class="cls-2" d="m348.84,125.83c0-5.65-2.44-10.72-6.33-14.23-.84-.76-.85-2.11,0-2.87,5.43-4.9,8.04-12.85,5.12-21.15-1.83-5.21-5.99-9.31-11.21-11.1-13.43-4.61-25.92,5.25-25.92,18.02,0,5.64,2.44,10.7,6.31,14.21.85.77.85,2.13,0,2.91-3.88,3.51-6.31,8.57-6.31,14.21s2.31,10.43,6,13.92c.96.91.97,2.4,0,3.31-5.21,4.92-7.66,12.73-4.78,20.87,1.84,5.2,5.99,9.28,11.2,11.07,13.43,4.61,25.92-5.25,25.92-18.02,0-5.46-2.29-10.39-5.95-13.88-.97-.93-.97-2.47,0-3.4,3.67-3.49,5.95-8.42,5.95-13.88Z"/>
      <path class="cls-5" d="m329.67,40.44c-33.49,0-60.65,27.15-60.65,60.65v40.02h23.05v-40.02h0c.06-20.72,16.87-37.5,37.6-37.5s37.54,16.78,37.6,37.5h-.05v40.02h23.1v-40.02c0-33.49-27.15-60.65-60.65-60.65Z"/>
      <circle class="cls-4" cx="329.67" cy="18.55" r="18.55"/>
      <path class="cls-4" d="m382.34,173.81c2.12-1.43,4.38-4.24,5.83-8.53,1.47-4.35.19-7.99-.78-10.76-.77-2.2-1.49-4.16-3.49-5.26-.41-.22-2.54-1.47-4.87-.55-1.83.73-3.05,2.52-3.24,4.23-.21,1.88.98,2.28,1.72,5.4.32,1.33.82,3.46.15,5.71-.81,2.7-2.34,3.94-3.03,6.53-.53,1.98-.44,3.61,1.08,4.47,1.54.87,4.74.03,6.62-1.24Z"/>
      <path class="cls-4" d="m275.3,150.8c-.89,2.09-1.15,5.39,0,9.59,1.17,4.25,4.11,6.75,6.34,8.66,1.78,1.51,3.38,2.84,5.53,2.91.43.01,2.77.15,4.08-1.61,1.04-1.39,1.03-3.4.27-4.9-.84-1.66-1.98-1.49-4.22-3.78-.96-.98-2.48-2.54-3.16-4.7-.81-2.6-.28-4.28-1.13-6.74-.65-1.88-1.58-3.2-3.23-3.27-1.67-.07-3.71,1.99-4.5,3.84Z"/>
      <path class="cls-3" d="m345.75,188.91h-35.04c-23.02,0-41.69,18.67-41.69,41.69v25.1c0,16.72,13.04,30.28,29.13,30.28s29.13-13.56,29.13-30.28v-23.71h3.31v23.71c0,16.72,13.04,30.28,29.13,30.28s29.13-13.56,29.13-30.28v-23.71h0c0-23.79-19.29-43.08-43.08-43.08Z"/>
      <path class="cls-4" d="m264.9,298.61h19.1v10.85h-29.95c0-5.99,4.86-10.85,10.85-10.85Z" transform="translate(93.14 -61.86) rotate(15.83)"/>
      <path class="cls-4" d="m375.34,297.13h19.1c5.99,0,10.85,4.86,10.85,10.85h-29.95v-10.85h0Z" transform="translate(-63.23 107.14) rotate(-14.47)"/>
      <circle class="cls-6" cx="316.75" cy="17.97" r="12.27"/>
      <circle class="cls-6" cx="342.6" cy="17.97" r="12.27"/>
    </g>
  </g>
</svg>