<?xml version="1.0" encoding="UTF-8"?>
<svg id="Calque_2" data-name="Calque 2" xmlns="http://www.w3.org/2000/svg" xmlns:xlink="http://www.w3.org/1999/xlink" viewBox="0 0 153.03 313.33">
  <defs>
    <style>
      .cls-1 {
        fill: #ef80b1;
      }

      .cls-2 {
        fill: #fcc11a;
      }

      .cls-3 {
        fill: #639d7b;
      }

      .cls-4 {
        fill: url(#Dégradé_sans_nom_43);
      }

      .cls-5 {
        fill: none;
        stroke: #ef80b1;
        stroke-miterlimit: 10;
        stroke-width: 5px;
      }
    </style>
    <linearGradient id="Dégradé_sans_nom_43" data-name="Dégradé sans nom 43" x1="74.81" y1="45.35" x2="77.58" y2="166.61" gradientUnits="userSpaceOnUse">
      <stop offset="0" stop-color="#fcc11a"/>
      <stop offset=".18" stop-color="#fcc11d"/>
      <stop offset=".31" stop-color="#fcc426"/>
      <stop offset=".42" stop-color="#fcc836"/>
      <stop offset=".53" stop-color="#fccd4d"/>
      <stop offset=".63" stop-color="#fdd56b"/>
      <stop offset=".73" stop-color="#fede8f"/>
      <stop offset=".83" stop-color="#fee9ba"/>
      <stop offset=".85" stop-color="#ffecc6"/>
    </linearGradient>
  </defs>
  <g id="tete_edgard" data-name="tete edgard">
    <circle class="cls-3" cx="76.53" cy="18.55" r="18.55"/>
  </g>
  <g id="lunette_edgard" data-name="lunette edgard">
    <circle class="cls-5" cx="63.61" cy="17.97" r="12.27"/>
    <circle class="cls-5" cx="89.45" cy="17.97" r="12.27"/>
  </g>
  <g id="pd_edgard" data-name="pd edgard">
    <path class="cls-3" d="m122.2,297.13h19.1c5.99,0,10.85,4.86,10.85,10.85h-29.95v-10.85h0Z" transform="translate(-71.26 43.88) rotate(-14.47)"/>
  </g>
  <g id="pg_edgard" data-name="pg edgard">
    <path class="cls-3" d="m11.76,298.61h19.1v10.85H.91c0-5.99,4.86-10.85,10.85-10.85Z" transform="translate(83.54 7.2) rotate(15.83)"/>
  </g>
  <g id="md_edgard" data-name="md edgard">
    <path class="cls-3" d="m129.2,173.81c2.12-1.43,4.38-4.24,5.83-8.53,1.47-4.35.19-7.99-.78-10.76-.77-2.2-1.49-4.16-3.49-5.26-.41-.22-2.54-1.47-4.87-.55-1.83.73-3.05,2.52-3.24,4.23-.21,1.88.98,2.28,1.72,5.4.32,1.33.82,3.46.15,5.71-.81,2.7-2.34,3.94-3.03,6.53-.53,1.98-.44,3.61,1.08,4.47,1.54.87,4.74.03,6.62-1.24Z"/>
  </g>
  <g id="mg_edgard" data-name="mg edgard">
    <path class="cls-3" d="m22.16,150.8c-.89,2.09-1.15,5.39,0,9.59,1.17,4.25,4.11,6.75,6.34,8.66,1.78,1.51,3.38,2.84,5.53,2.91.43.01,2.77.15,4.08-1.61,1.04-1.39,1.03-3.4.27-4.9-.84-1.66-1.98-1.49-4.22-3.78-.96-.98-2.48-2.54-3.16-4.7-.81-2.6-.28-4.28-1.13-6.74-.65-1.88-1.58-3.2-3.23-3.27-1.67-.07-3.71,1.99-4.5,3.84Z"/>
  </g>
  <g id="jambes_edgard" data-name="jambes edgard">
    <path class="cls-2" d="m92.61,188.91h-35.04c-23.02,0-41.69,18.67-41.69,41.69v25.1c0,16.72,13.04,30.28,29.13,30.28s29.13-13.56,29.13-30.28v-23.71h3.31v23.71c0,16.72,13.04,30.28,29.13,30.28s29.13-13.56,29.13-30.28v-23.71h0c0-23.79-19.29-43.08-43.08-43.08Z"/>
  </g>
  <g id="epaule_edgard" data-name="epaule edgard">
    <path class="cls-4" d="m76.53,40.44c-33.49,0-60.65,27.15-60.65,60.65v40.02h23.05v-40.02h0c.06-20.72,16.87-37.5,37.6-37.5s37.54,16.78,37.6,37.5h-.05v40.02h23.1v-40.02c0-33.49-27.15-60.65-60.65-60.65Z"/>
  </g>
  <g id="ventre_edgard" data-name="ventre edgard">
    <path class="cls-1" d="m95.7,125.83c0-5.65-2.44-10.72-6.33-14.23-.84-.76-.85-2.11,0-2.87,5.43-4.9,8.04-12.85,5.12-21.15-1.83-5.21-5.99-9.31-11.21-11.1-13.43-4.61-25.92,5.25-25.92,18.02,0,5.64,2.44,10.7,6.31,14.21.85.77.85,2.13,0,2.91-3.88,3.51-6.31,8.57-6.31,14.21s2.31,10.43,6,13.92c.96.91.97,2.4,0,3.31-5.21,4.92-7.66,12.73-4.78,20.87,1.84,5.2,5.99,9.28,11.2,11.07,13.43,4.61,25.92-5.25,25.92-18.02,0-5.46-2.29-10.39-5.95-13.88-.97-.93-.97-2.47,0-3.4,3.67-3.49,5.95-8.42,5.95-13.88Z"/>
  </g>
</svg>