<?xml version="1.0" encoding="UTF-8"?>
<svg id="Calque_2" data-name="Calque 2" xmlns="http://www.w3.org/2000/svg" xmlns:xlink="http://www.w3.org/1999/xlink" viewBox="0 0 111.85 303.16">
  <defs>
    <style>
      .cls-1 {
        fill: #ef80b1;
      }

      .cls-2 {
        fill: #134395;
      }

      .cls-3 {
        fill: #639d7b;
      }

      .cls-4 {
        fill: url(#Dégradé_sans_nom_18);
      }
    </style>
    <linearGradient id="Dégradé_sans_nom_18" data-name="Dégradé sans nom 18" x1="54.04" y1="116.28" x2="52.71" y2="168.71" gradientUnits="userSpaceOnUse">
      <stop offset=".06" stop-color="#fcc11a"/>
      <stop offset=".23" stop-color="#fbc11d"/>
      <stop offset=".36" stop-color="#fac326"/>
      <stop offset=".48" stop-color="#f8c736"/>
      <stop offset=".58" stop-color="#f5cb4d"/>
      <stop offset=".69" stop-color="#f2d26b"/>
      <stop offset=".78" stop-color="#eed98f"/>
      <stop offset=".88" stop-color="#e9e3bb"/>
      <stop offset=".97" stop-color="#e3edeb"/>
      <stop offset=".97" stop-color="#e3eeef"/>
    </linearGradient>
  </defs>
  <g id="tete_bianca" data-name="tete bianca">
    <g>
      <path class="cls-1" d="m45.27,31.92c-1.86.01-4.97.31-8.1,2.1-6.38,3.65-7.95,10.69-8.54,13.31-1.45,6.52-.77,16.24,5.35,21.34,1.86,1.55,5.17,3.45,9.19,4.34,1.57.35,4.71.82,5.14-.64"/>
      <rect id="tete" class="cls-2" x="30.76" y="32.98" width="40.16" height="31.32" rx="15.66" ry="15.66"/>
      <path id="cheveux" class="cls-1" d="m42.69,34.7c-1.97,4.37.79,11.6,5.33,14.04,4.84,2.59,9.26-1.56,13.19,1.4,3.43,2.58,3.65,8.4,3.09,11.79-1.07,6.53-5.85,9.09-4.77,10.95,1.24,2.14,8.91,1.11,14.6-2.53,5.19-3.32,9.63-9.37,10.39-16.84.82-8.13-2.95-15.56-8.14-19.93-10.98-9.25-30.28-6.45-33.69,1.12Z"/>
      <path id="cheveux_gauche" data-name="cheveux gauche" class="cls-1" d="m55.77,37.68c.85,3.62-1.34,9.28-4.25,10.98-3.09,1.81-5.42-1.77-8,.39-2.25,1.88-2.81,6.54-2.74,9.3.15,5.31,2.81,7.63,2.03,9.06-.9,1.65-5.41.39-8.54-2.85-2.85-2.95-5.05-8.07-4.94-14.12.12-6.58,2.94-12.34,6.37-15.56,7.27-6.82,18.6-3.48,20.07,2.79Z"/>
      <path id="casquette" class="cls-3" d="m77.08,47.17l34.78.83-24.37-5.48-5.4-1.37c.28-.56,1.26-3.79,1.04-6.59-.43-5.39-4.14-10.66-8.21-12.96-3.27-1.84-7.18-3.53-11.56-3.6-10.61-.16-12.53.15-16.01,1.69-6.84,3.01-9.26,7.3-11.29,9.77-1.64,2.01-3.59,5.82-6.04,12.17-.63,1.63-1.02,3.06-1.27,4.1"/>
    </g>
  </g>
  <g id="haut_bianca" data-name="haut bianca">
    <path id="poitrine" class="cls-3" d="m52.23,100.47c-11.08,0-20.06-8.96-20.09-20.03h-12.31c0,17.9,14.51,32.4,32.4,32.4,17.9,0,32.4-14.51,32.4-32.4h-12.31c-.03,11.07-9.01,20.03-20.09,20.03Z"/>
  </g>
  <g id="bas_bianca" data-name="bas bianca">
    <path id="jambe_bas_droit" data-name="jambe bas droit" class="cls-1" d="m46.61,207.15c0-4.31-1.36-8.31-3.68-11.62-2.02-2.89-2.25-7.6-.18-10.45,2.87-3.97,4.34-8.96,3.72-14.29-1.11-9.52-9.04-17.18-18.88-18.23-12.95-1.39-23.91,8.39-23.91,20.65,0,4.31,1.36,8.31,3.68,11.63,2.28,3.25,2.28,7.44,0,10.69s-3.68,7.32-3.68,11.63c0,3.87,1.09,7.48,2.99,10.58,2.33,3.79,2.6,8.52.2,12.28-2.44,3.81-3.64,8.45-3.05,13.38,1.13,9.5,9.06,17.13,18.88,18.18,12.95,1.38,23.91-8.39,23.91-20.65,0-4.56-1.52-8.77-4.09-12.19-2.09-2.79-2.09-6.6,0-9.38,2.57-3.42,4.09-7.64,4.09-12.19Z"/>
    <path id="jmabe_bas_gauche" data-name="jmabe bas gauche" class="cls-1" d="m102.45,208.14c0-4.43-1.36-8.55-3.68-11.96-2.02-2.97-2.25-7.82-.18-10.76,2.87-4.09,4.34-9.22,3.72-14.7-1.11-9.8-9.04-17.68-18.88-18.76-12.95-1.43-23.91,8.63-23.91,21.24,0,4.44,1.36,8.55,3.68,11.97s2.28,7.66,0,11c-2.32,3.41-3.68,7.53-3.68,11.97,0,3.98,1.09,7.7,2.99,10.89,2.33,3.9,2.6,8.77.2,12.63-2.44,3.92-3.64,8.69-3.05,13.76,1.13,9.78,9.06,17.63,18.88,18.71,12.95,1.42,23.91-8.64,23.91-21.24,0-4.69-1.52-9.02-4.09-12.55-2.09-2.87-2.09-6.79,0-9.65,2.57-3.52,4.09-7.86,4.09-12.55Z"/>
    <rect id="jmabe_haut" data-name="jmabe haut" class="cls-1" x="3.67" y="155.26" width="42.94" height="19.14"/>
    <rect id="jambe" class="cls-1" x="59.51" y="155.26" width="42.94" height="18.46"/>
    <path id="hanche" class="cls-4" d="m3.77,155.26c0-23.59,22.07-42.71,49.29-42.71,27.22,0,49.29,19.12,49.29,42.71"/>
  </g>
  <g id="pd_bianca" data-name="pd bianca">
    <path id="pd_bianca-2" data-name="pd bianca" class="cls-2" d="m69.23,277.63h24.52c7.39,0,13.4,6,13.4,13.4v2.41h-37.91v-15.81h0Z" transform="translate(81.23 -13.23) rotate(15.83)"/>
  </g>
  <g id="pg_bianca" data-name="pg bianca">
    <path id="pg_bianca-2" data-name="pg bianca" class="cls-2" d="m10.63,280.34h23.56v15.81H-2.76v-2.41c0-7.39,6-13.4,13.4-13.4Z" transform="translate(-119.26 33.07) rotate(-24.76)"/>
  </g>
  <g id="main_droite_bianca" data-name="main droite bianca">
    <path id="md_bianca" data-name="md bianca" class="cls-2" d="m96.96,10.45s.01-.07.02-.11c.47-1.53,1.39-2.94,2.46-4.12.58-.64,1.22-1.24,1.84-1.85.6-.58.54-.5,1.18-1.19.15-.16.32-.31.49-.45.02-.45-.08-.9-.35-1.33-.75-1.2-3.17-1.63-4.85-1.29-1.89.38-4.32,1.79-6.69,4.62-2.4,2.87-2.74,6.12-2.99,8.6-.2,1.97-.36,3.73.63,5.26.2.31,1.23,2,3.09,2.08,1.47.06,2.87-.91,3.55-2.17.76-1.39.08-2.1.61-4.77.17-.85.41-2.08,1.02-3.28Z"/>
  </g>
  <g id="mg_bianca" data-name="mg bianca">
    <path id="mg_bianca-2" data-name="mg bianca" class="cls-2" d="m19.64,6.98c-2.35-3.07-4.95-4.73-7.07-5.31-1.88-.51-4.72-.34-5.75.77-.11.12-.2.25-.28.38.33.23.64.52.91.91,1.2,1.73,3.11,2.91,4.28,4.74,1.09,1.71,1.67,3.73,1.82,5.74.15,1.91.04,4.16-.65,6.07.64,1.29,2.09,2.37,3.75,2.47,2.15.12,3.56-1.45,3.83-1.74,1.34-1.42,1.4-3.19,1.43-5.17.04-2.49.1-5.76-2.27-8.87Z"/>
  </g>
</svg>